<?xml version="1.0" encoding="UTF-8"?>
<svg id="Layer_1" data-name="Layer 1" xmlns="http://www.w3.org/2000/svg" viewBox="0 0 32 32">
  <defs>
    <style>
      .cls-1 {
        fill: #87ceeb;
      }
    </style>
  </defs>
  <path class="cls-1" d="m3.38,15.48c.39.49.85.9,1.37,1.25.46.3.95.58,1.46.84.12-.5.25-1,.37-1.51.27-1.1.55-2.19.84-3.29-.41-.37-.62-.87-.62-1.51,0-.79.22-1.36.65-1.7.31-.24.65-.4,1.01-.47.45-1.46.93-2.91,1.48-4.34-.39-.05-.78-.08-1.2-.08-.79,0-1.57.13-2.35.39-.78.26-1.49.67-2.13,1.21-.64.55-1.15,1.25-1.55,2.11-.39.86-.59,1.89-.59,3.08,0,.89.11,1.66.33,2.31.22.65.53,1.21.93,1.7Z"/>
  <path class="cls-1" d="m10.44,9.39c.49.23.91.56,1.28.99l2.52-3.57c-.63-.66-1.41-1.19-2.34-1.57-.11-.05-.23-.08-.34-.12-.52,1.36-.99,2.75-1.42,4.14.1.04.21.08.31.13Z"/>
  <path class="cls-1" d="m4.96,22.51c.02-.08.04-.16.06-.24-.49-.27-.93-.61-1.32-1.01l-2.49,3.64c.65.65,1.5,1.21,2.57,1.7.09.04.19.07.28.11.17-1.42.53-2.81.9-4.2Z"/>
  <path class="cls-1" d="m12.47,16.16c-.45-.49-.94-.9-1.48-1.23s-1.05-.62-1.54-.87c-.2-.1-.4-.21-.58-.31-.22.83-.43,1.66-.64,2.5-.18.71-.35,1.43-.53,2.14.32.2.6.4.83.6.49.42.73.98.73,1.69s-.2,1.23-.61,1.61c-.41.38-.9.58-1.49.58-.19,0-.39-.02-.58-.05-.39,1.45-.77,2.88-.91,4.36.53.09,1.07.15,1.64.15.87,0,1.71-.15,2.53-.44.81-.29,1.53-.73,2.15-1.31.62-.58,1.12-1.31,1.48-2.19.37-.88.55-1.9.55-3.06,0-.93-.15-1.74-.44-2.42-.3-.68-.67-1.26-1.12-1.75Z"/>
  <path d="m20.98,22.5h-.24v-13h1.18c1.13,0,2.05.52,2.78,1.53.59-1.56,1.22-3.11,1.91-4.63-.24-.14-.49-.28-.76-.4-1.12-.51-2.46-.76-3.99-.76h-6.04v21.5h3.91c.42-1.42.83-2.83,1.25-4.25Z"/>
  <path d="m30.26,11.58c-.35-1.33-.9-2.46-1.62-3.4-.21-.27-.44-.52-.68-.75-.86,1.91-1.62,3.86-2.32,5.83.18.81.27,1.74.27,2.81,0,2.09-.37,3.68-1.11,4.78-.56.84-1.26,1.36-2.07,1.56-.43,1.45-.85,2.9-1.27,4.35h.42c1.54,0,2.87-.25,3.99-.76,1.12-.51,2.05-1.22,2.78-2.16.73-.93,1.27-2.05,1.62-3.37.35-1.32.53-2.78.53-4.4s-.18-3.15-.53-4.48Z"/>
</svg>