<?xml version="1.0" encoding="UTF-8"?>
<svg id="Layer_1" data-name="Layer 1" xmlns="http://www.w3.org/2000/svg" viewBox="0 0 203 50">
  <defs>
    <style>
      .cls-1 {
        fill: #87ceeb;
      }
    </style>
  </defs>
  <path class="cls-1" d="m5.6,24.06c.72.88,1.55,1.64,2.48,2.26.83.55,1.72,1.06,2.65,1.52.22-.91.45-1.82.67-2.74.49-1.99.99-3.99,1.52-5.97-.74-.67-1.12-1.58-1.12-2.74,0-1.44.4-2.47,1.19-3.1.56-.44,1.18-.72,1.84-.85.81-2.66,1.69-5.29,2.68-7.89-.7-.09-1.42-.15-2.18-.15-1.44,0-2.86.24-4.28.72-1.42.48-2.7,1.21-3.86,2.21-1.16.99-2.1,2.27-2.81,3.84-.72,1.56-1.08,3.43-1.08,5.6,0,1.62.2,3.02.61,4.19.4,1.18.97,2.21,1.68,3.09Z"/>
  <path class="cls-1" d="m18.43,12.99c.88.42,1.66,1.02,2.32,1.79l4.58-6.48c-1.14-1.21-2.56-2.16-4.25-2.85-.2-.08-.42-.14-.62-.22-.95,2.48-1.8,4.99-2.58,7.53.19.07.37.14.56.23Z"/>
  <path class="cls-1" d="m8.47,36.82c.04-.14.07-.29.11-.43-.89-.49-1.69-1.1-2.4-1.84l-4.53,6.62c1.18,1.18,2.73,2.21,4.66,3.09.17.08.34.13.51.2.3-2.58.96-5.1,1.64-7.64Z"/>
  <path class="cls-1" d="m22.11,25.3c-.82-.89-1.71-1.63-2.7-2.24s-1.92-1.13-2.81-1.58c-.37-.19-.72-.38-1.05-.56-.39,1.51-.78,3.02-1.15,4.54-.32,1.3-.64,2.59-.96,3.89.58.37,1.09.73,1.5,1.08.88.75,1.32,1.78,1.32,3.06s-.37,2.23-1.1,2.93c-.74.7-1.64,1.05-2.7,1.05-.35,0-.7-.03-1.05-.08-.7,2.64-1.41,5.24-1.66,7.93.96.17,1.95.27,2.99.27,1.58,0,3.11-.27,4.59-.8,1.48-.53,2.78-1.33,3.91-2.38,1.13-1.05,2.03-2.38,2.69-3.98.67-1.6,1-3.46,1-5.56,0-1.7-.27-3.16-.81-4.4-.54-1.24-1.21-2.29-2.03-3.18Z"/>
  <path class="cls-1" d="m47.41,44.54l-8.33-18.16h-.17v18.16h-8.89V5.46h8.89v16.28h.17l8.06-16.28h9.88l-10.05,17.88,10.65,21.2h-10.21Z"/>
  <path class="cls-1" d="m75.45,30.46v14.08h-8.67v-14.08l-9.88-25h9.55l4.69,16.17h.11l4.75-16.17h9.38l-9.94,25Z"/>
  <path d="m97.57,36.81h-.44V13.19h2.15c2.05,0,3.73.94,5.05,2.79,1.07-2.84,2.22-5.65,3.48-8.42-.44-.26-.9-.5-1.38-.72-2.04-.92-4.46-1.38-7.26-1.38h-10.98v39.08h7.11c.76-2.57,1.51-5.15,2.27-7.73Z"/>
  <path d="m114.44,16.97c-.64-2.41-1.63-4.47-2.95-6.18-.38-.49-.8-.94-1.24-1.36-1.56,3.47-2.94,7.01-4.22,10.59.32,1.47.49,3.17.49,5.1,0,3.79-.67,6.69-2.01,8.69-1.03,1.53-2.28,2.47-3.77,2.84-.77,2.63-1.54,5.27-2.31,7.9h.76c2.8,0,5.22-.46,7.26-1.38,2.04-.92,3.73-2.23,5.05-3.92,1.33-1.69,2.31-3.73,2.95-6.13.64-2.39.97-5.06.97-8s-.32-5.73-.97-8.14Z"/>
  <path d="m120.76,44.54V5.46h18.88v7.78h-10.43v7.67h9.6v7.29h-9.6v8.39h11.09v7.95h-19.54Z"/>
  <path d="m165.69,44.07c-1.73,1.01-3.94,1.52-6.62,1.52-2.28,0-4.35-.51-6.21-1.52-1.86-1.01-3.45-2.43-4.77-4.25-1.32-1.82-2.36-3.99-3.09-6.51-.74-2.52-1.1-5.29-1.1-8.31s.37-5.85,1.1-8.39c.74-2.54,1.77-4.71,3.09-6.51,1.33-1.8,2.92-3.2,4.77-4.19,1.86-.99,3.93-1.49,6.21-1.49,2.61,0,4.79.47,6.54,1.41s3.16,2.11,4.22,3.5l-4.75,6.4c-.66-.88-1.41-1.58-2.24-2.1-.83-.51-1.87-.77-3.12-.77-1.18,0-2.2.31-3.06.94-.87.63-1.6,1.48-2.21,2.57-.61,1.09-1.06,2.37-1.35,3.86-.29,1.49-.44,3.08-.44,4.77s.15,3.28.44,4.75c.29,1.47.75,2.76,1.35,3.86.61,1.1,1.35,1.97,2.24,2.59.88.63,1.91.94,3.09.94s2.21-.29,3.09-.88c.88-.59,1.58-1.29,2.1-2.1l4.91,6.13c-1.07,1.51-2.47,2.77-4.2,3.78Z"/>
  <path d="m191.14,44.54l-8.33-18.16h-.17v18.16h-8.89V5.46h8.89v16.28h.17l8.06-16.28h9.88l-10.05,17.88,10.65,21.2h-10.21Z"/>
</svg>